<svg width="258" height="70" viewBox="0 0 258 70" fill="none" xmlns="http://www.w3.org/2000/svg">
<path d="M38.08 5.32V10.64H40.32H42.56V7.56V4.48H147.56H252.56V35V65.52H147.56H42.56V62.44V59.36H40.32H38.08V64.68V70H147.56H257.04V35V-2.16067e-06H147.56H38.08V5.32Z" fill="black"/>
<path d="M78.96 12.488C78.96 12.656 80.192 13.72 81.704 14.84L84.504 16.856L86.464 15.568C87.584 14.84 88.48 14.112 88.48 13.944C88.48 13.72 86.912 13.384 85.008 13.216C83.048 12.992 80.92 12.656 80.248 12.488C79.52 12.32 78.96 12.32 78.96 12.488Z" fill="black"/>
<path d="M95.368 13.048C93.128 13.328 91.28 13.776 91.28 13.944C91.28 14.112 92.176 14.84 93.296 15.568L95.256 16.856L98.056 14.84C99.568 13.72 100.8 12.656 100.8 12.544C100.8 12.264 100.856 12.264 95.368 13.048Z" fill="black"/>
<path d="M87.752 16.072C85.512 17.64 85.512 17.976 87.192 21.616C87.864 23.184 87.864 24.64 86.8 34.328L85.624 45.304L87.752 49.56L89.88 53.76L92.008 49.56L94.08 45.304L92.96 34.048C92.288 27.384 92.008 22.568 92.288 22.176C92.568 21.84 93.072 20.664 93.464 19.6C94.024 17.864 93.968 17.584 92.848 16.632C90.216 14.56 89.88 14.56 87.752 16.072Z" fill="black"/>
<path d="M228.2 18.088C223.384 19.712 219.632 22.792 217.392 27.104C216.104 29.568 215.88 30.632 215.88 35C215.88 39.144 216.104 40.488 217.168 42.672C218.848 46.032 222.208 49.392 225.568 51.072C230.664 53.536 240.408 52.92 244.328 49.784C245.84 48.664 245.84 48.552 245.84 41.664V34.72H240.464H235.088L235.48 36.232C236.04 38.528 236.824 39.2 238.896 39.2H240.8V42.56C240.8 45.752 240.744 45.92 239.008 46.872C236.32 48.216 230.496 48.16 227.64 46.648C222.992 44.184 220.416 40.096 220.416 35C220.416 25.312 229.992 19.6 239.008 23.8C242.592 25.424 242.928 25.48 244.664 24.304L245.952 23.408L244.44 21.84C241.08 18.368 233.016 16.52 228.2 18.088Z" fill="#FF6633"/>
<path d="M0 35V52.08H2.52H5.04V44.8V37.52H14.336H23.576L23.408 44.8L23.24 52.08H25.648H28V35V17.92H25.76H23.52V25.2V32.48H14.28H5.04V25.2V17.92H2.52H0V35Z" fill="black"/>
<path d="M37.968 35L37.8 52.08H40.208H42.56V35V17.92H40.32H38.136L37.968 35Z" fill="black"/>
<path d="M52.08 35V52.08H61.88H71.68V49.84V47.656L64.344 47.488L57.064 47.32L57.12 32.592L57.176 17.92H54.6H52.08V35Z" fill="black"/>
<path d="M114.8 35V52.08H117.32H119.84V45.08V38.08H122.36H124.88L128.856 43.512C135.352 52.416 134.904 52.08 140.56 52.08C146.048 52.08 146.384 51.912 148.288 47.432L149.464 44.8L158.312 44.856H167.16L168.84 48.328C170.464 51.688 170.576 51.8 172.928 51.968C174.216 52.08 175.28 52.024 175.28 51.856C175.28 51.632 165.368 28.672 162.008 21.112C160.608 17.976 160.552 17.92 158.256 17.92H155.904L148.624 34.72C144.648 43.96 141.176 51.464 140.952 51.352C140.672 51.296 138.208 48.216 135.52 44.52C131.264 38.808 130.648 37.688 131.432 37.24C135.464 34.664 137.2 31.92 137.2 28.056C137.2 25.2 136.36 23.072 134.512 21.056C131.992 18.424 130.144 17.92 122.08 17.92H114.8V35ZM130.928 24.248C133.056 26.376 133 29.848 130.872 31.696C129.472 32.872 128.744 33.04 124.544 33.04H119.84V27.664V22.232L124.656 22.512C128.912 22.736 129.584 22.904 130.928 24.248ZM161.784 32.592C163.352 36.176 164.64 39.256 164.64 39.424C164.64 39.592 161.728 39.76 158.144 39.76C154.56 39.76 151.76 39.536 151.872 39.256C154.112 33.376 158.256 24.808 158.536 25.368C158.76 25.704 160.216 29.008 161.784 32.592Z" fill="#FF6633"/>
<path d="M179.76 35V52.08H182H184.24L184.352 38.472L184.52 24.808L194.376 38.304C203.896 51.352 204.288 51.8 206.248 51.968L208.32 52.136V35.056V17.92H206.08H203.84L203.728 30.52L203.56 43.12L195.16 31.528C190.568 25.144 186.368 19.488 185.808 18.928C185.136 18.256 183.96 17.92 182.28 17.92H179.76V35Z" fill="#FF6633"/>
<path d="M81.592 19.656C78.736 21.168 75.432 24.64 73.864 27.888C72.016 31.584 72.016 38.304 73.808 42.28C76.048 47.152 81.032 51.24 86.128 52.36L87.976 52.752L86.576 49.896C85.736 48.328 84.448 46.704 83.552 46.256C77.672 43.176 75.432 35.168 78.792 29.064C80.08 26.656 84.28 22.96 85.736 22.96C85.96 22.96 85.736 21.952 85.288 20.72C84.784 19.488 84.224 18.48 84.056 18.48C83.888 18.536 82.768 19.04 81.592 19.656Z" fill="black"/>
<path d="M94.472 20.72C94.024 21.952 93.8 22.96 94.024 22.96C94.248 22.96 95.592 23.688 96.992 24.64C104.72 29.736 104.272 42.056 96.208 46.256C95.312 46.704 94.024 48.328 93.184 49.896L91.784 52.752L93.632 52.36C98.728 51.24 103.712 47.152 105.952 42.28C107.744 38.304 107.744 31.584 105.896 27.888C104.272 24.584 101.024 21.112 98.056 19.6C96.824 18.984 95.704 18.48 95.592 18.48C95.48 18.48 94.976 19.488 94.472 20.72Z" fill="black"/>
</svg>
