<svg width="200" height="55" viewBox="0 0 200 55" fill="none" xmlns="http://www.w3.org/2000/svg">
<path d="M29.6296 4.13951V8.27894H31.3726H33.1155V5.88243V3.48592H114.815H196.514V27.2332V50.9805H114.815H33.1155V48.584V46.1874H31.3726H29.6296V50.3269V54.4663H114.815H200V27.2332V7.7799e-05H114.815H29.6296V4.13951Z" fill="white"/>
<path d="M61.4379 9.71679C61.4379 9.8475 62.3965 10.6754 63.573 11.5469L65.7516 13.1155L67.2767 12.1133C68.1482 11.5469 68.8453 10.9804 68.8453 10.8497C68.8453 10.6754 67.6253 10.414 66.1438 10.2832C64.6187 10.1089 62.963 9.8475 62.4401 9.71679C61.8736 9.58607 61.4379 9.58607 61.4379 9.71679Z" fill="white"/>
<path d="M74.2048 10.1525C72.4619 10.3704 71.024 10.719 71.024 10.8497C71.024 10.9804 71.7211 11.5469 72.5926 12.1133L74.1176 13.1155L76.2963 11.5469C77.4728 10.6754 78.4314 9.84751 78.4314 9.76036C78.4314 9.54249 78.4749 9.54249 74.2048 10.1525Z" fill="white"/>
<path d="M68.2789 12.5055C66.5359 13.7255 66.5359 13.9869 67.8431 16.8192C68.366 18.0392 68.366 19.1721 67.5381 26.7103L66.6231 35.2506L68.2789 38.5621L69.9346 41.8301L71.5904 38.5621L73.2026 35.2506L72.3311 26.4924C71.8083 21.3072 71.5904 17.5599 71.8083 17.2549C72.0261 16.9935 72.4183 16.0784 72.7233 15.2506C73.159 13.8998 73.1155 13.6819 72.244 12.9412C70.1961 11.329 69.9346 11.329 68.2789 12.5055Z" fill="white"/>
<path d="M177.56 14.0741C173.813 15.3377 170.893 17.7342 169.15 21.0894C168.148 23.0066 167.974 23.8345 167.974 27.2332C167.974 30.4576 168.148 31.5033 168.976 33.2027C170.283 35.817 172.898 38.4314 175.512 39.7386C179.477 41.6558 187.059 41.1765 190.109 38.7364C191.285 37.865 191.285 37.7778 191.285 32.4183V27.0153H187.102H182.919L183.224 28.1918C183.66 29.9783 184.27 30.5011 185.882 30.5011H187.364V33.1155C187.364 35.5992 187.32 35.7299 185.969 36.4706C183.878 37.5164 179.346 37.4728 177.124 36.2963C173.508 34.3791 171.503 31.1983 171.503 27.2332C171.503 19.695 178.954 15.2506 185.969 18.5186C188.758 19.7822 189.02 19.8257 190.37 18.9107L191.373 18.2135L190.196 16.9935C187.582 14.292 181.307 12.8541 177.56 14.0741Z" fill="#FF6633"/>
<path d="M0 27.2332V40.5229H1.96078H3.92157V34.8585V29.194H11.1547H18.3442L18.2135 34.8585L18.0828 40.5229H19.9564H21.7865V27.2332V13.9434H20.0436H18.3007V19.6079V25.2724H11.1111H3.92157V19.6079V13.9434H1.96078H0V27.2332Z" fill="white"/>
<path d="M29.5425 27.2332L29.4118 40.5229H31.2854H33.1155V27.2332V13.9434H31.3725H29.6732L29.5425 27.2332Z" fill="white"/>
<path d="M40.5229 27.2332V40.5229H48.1481H55.7734V38.78V37.0807L50.0654 36.95L44.4009 36.8192L44.4444 25.3596L44.488 13.9434H42.4837H40.5229V27.2332Z" fill="white"/>
<path d="M89.3246 27.2334V40.5231H91.2854H93.2462V35.0765V29.6299H95.207H97.1678L100.261 33.8565C105.316 40.7846 104.967 40.5231 109.368 40.5231C113.638 40.5231 113.9 40.3924 115.381 36.9066L116.296 34.8586L123.181 34.9022H130.065L131.373 37.6037C132.636 40.2181 132.723 40.3053 134.553 40.436C135.556 40.5231 136.383 40.4796 136.383 40.3488C136.383 40.1745 128.671 22.3096 126.057 16.4273C124.967 13.9872 124.924 13.9436 123.137 13.9436H121.307L115.643 27.0155C112.549 34.205 109.847 40.0438 109.673 39.9567C109.455 39.9131 107.538 37.5166 105.447 34.6408C102.135 30.1963 101.656 29.3249 102.266 28.9763C105.403 26.9719 106.754 24.8369 106.754 21.8303C106.754 19.6081 106.1 17.9523 104.662 16.3837C102.702 14.3358 101.264 13.9436 94.9891 13.9436H89.3246V27.2334ZM101.874 18.8674C103.529 20.5231 103.486 23.2247 101.83 24.6626C100.741 25.5776 100.174 25.7083 96.9063 25.7083H93.2462V21.5253V17.2987L96.9935 17.5166C100.305 17.6909 100.828 17.8216 101.874 18.8674ZM125.882 25.3597C127.102 28.1484 128.105 30.5449 128.105 30.6756C128.105 30.8064 125.839 30.9371 123.05 30.9371C120.261 30.9371 118.083 30.7628 118.17 30.5449C119.913 25.9698 123.137 19.3031 123.355 19.7388C123.529 20.0003 124.662 22.5711 125.882 25.3597Z" fill="#FF6633"/>
<path d="M139.869 27.2331V40.5228H141.612H143.355L143.442 29.9346L143.573 19.3028L151.242 29.8039C158.649 39.9564 158.954 40.305 160.479 40.4357L162.091 40.5664V27.2766V13.9433H160.349H158.606L158.518 23.7472L158.388 33.5512L151.852 24.5315C148.279 19.5642 145.011 15.1634 144.575 14.7276C144.052 14.2048 143.137 13.9433 141.83 13.9433H139.869V27.2331Z" fill="#FF6633"/>
<path d="M63.4858 15.2943C61.2636 16.4707 58.6928 19.1723 57.4727 21.6995C56.0348 24.5753 56.0348 29.8041 57.4292 32.8978C59.1721 36.6886 63.0501 39.8694 67.0152 40.7409L68.4531 41.0459L67.3638 38.8237C66.7102 37.6036 65.708 36.34 65.0109 35.9914C60.4357 33.5949 58.6928 27.364 61.3072 22.6145C62.3094 20.7409 65.5773 17.8651 66.7102 17.8651C66.8845 17.8651 66.7102 17.0808 66.3616 16.1222C65.9695 15.1635 65.5338 14.3792 65.403 14.3792C65.2723 14.4228 64.4009 14.815 63.4858 15.2943Z" fill="white"/>
<path d="M73.5076 16.1222C73.159 17.0808 72.9847 17.8651 73.159 17.8651C73.3333 17.8651 74.3791 18.4315 75.4684 19.1723C81.4815 23.1374 81.1329 32.7235 74.8584 35.9914C74.1612 36.34 73.159 37.6036 72.5054 38.8237L71.4161 41.0459L72.854 40.7409C76.8192 39.8694 80.6972 36.6886 82.4401 32.8978C83.8344 29.8041 83.8344 24.5753 82.3965 21.6995C81.1329 19.1287 78.6056 16.4272 76.2963 15.2507C75.3377 14.7714 74.4662 14.3792 74.3791 14.3792C74.2919 14.3792 73.8998 15.1635 73.5076 16.1222Z" fill="white"/>
</svg>
